HIERARCHY
ROOT Hips
{
	OFFSET 0.00000 0.00000 0.00000
	CHANNELS 6 Xposition Yposition Zposition Zrotation Yrotation Xrotation 
	JOINT LHipJoint
	{
		OFFSET 0 0 0
		CHANNELS 3 Zrotation Yrotation Xrotation
		JOINT LeftUpLeg
		{
			OFFSET 1.65412 -1.54119 0.76744
			CHANNELS 3 Zrotation Yrotation Xrotation
			JOINT LeftLeg
			{
				OFFSET 2.19550 -6.03209 0.00000
				CHANNELS 3 Zrotation Yrotation Xrotation
				JOINT LeftFoot
				{
					OFFSET 2.38814 -6.56138 0.00000
					CHANNELS 3 Zrotation Yrotation Xrotation
					JOINT LeftToeBase
					{
						OFFSET 0.17337 -0.47632 1.75875
						CHANNELS 3 Zrotation Yrotation Xrotation
						End Site
						{
							OFFSET 0.00000 -0.00000 0.92050
						}
					}
				}
			}
		}
	}
	JOINT RHipJoint
	{
		OFFSET 0 0 0
		CHANNELS 3 Zrotation Yrotation Xrotation
		JOINT RightUpLeg
		{
			OFFSET -1.40291 -1.54119 0.76744
			CHANNELS 3 Zrotation Yrotation Xrotation
			JOINT RightLeg
			{
				OFFSET -2.22156 -6.10370 0.00000
				CHANNELS 3 Zrotation Yrotation Xrotation
				JOINT RightFoot
				{
					OFFSET -2.46840 -6.78188 0.00000
					CHANNELS 3 Zrotation Yrotation Xrotation
					JOINT RightToeBase
					{
						OFFSET -0.15659 -0.43024 1.84117
						CHANNELS 3 Zrotation Yrotation Xrotation
						End Site
						{
							OFFSET -0.00000 -0.00000 0.95587
						}
					}
				}
			}
		}
	}
	JOINT LowerBack
	{
		OFFSET 0 0 0
		CHANNELS 3 Zrotation Yrotation Xrotation
		JOINT Spine
		{
			OFFSET -0.01936 1.82120 -0.32061
			CHANNELS 3 Zrotation Yrotation Xrotation
			JOINT Spine1
			{
				OFFSET -0.00532 1.85767 -0.00071
				CHANNELS 3 Zrotation Yrotation Xrotation
				JOINT Neck
				{
					OFFSET 0 0 0
					CHANNELS 3 Zrotation Yrotation Xrotation
					JOINT Neck1
					{
						OFFSET -0.10687 1.58194 0.10810
						CHANNELS 3 Zrotation Yrotation Xrotation
						JOINT Head
						{
							OFFSET 0.15346 1.57382 -0.25612
							CHANNELS 3 Zrotation Yrotation Xrotation
							End Site
							{
								OFFSET 0.05334 1.61251 -0.10513
							}
						}
					}
				}
				JOINT LeftShoulder
				{
					OFFSET 0 0 0
					CHANNELS 3 Zrotation Yrotation Xrotation
					JOINT LeftArm
					{
						OFFSET 2.85758 0.89498 -0.01485
						CHANNELS 3 Zrotation Yrotation Xrotation
						JOINT LeftForeArm
						{
							OFFSET 4.79185 -0.00000 -0.00000
							CHANNELS 3 Zrotation Yrotation Xrotation
							JOINT LeftHand
							{
								OFFSET 2.65553 -0.00000 0.00000
								CHANNELS 3 Zrotation Yrotation Xrotation
								JOINT LeftFingerBase
								{
									OFFSET 0 0 0
									CHANNELS 3 Zrotation Yrotation Xrotation
									JOINT LeftHandIndex1
									{
										OFFSET 0.74390 -0.00000 0.00000
										CHANNELS 3 Zrotation Yrotation Xrotation
										End Site
										{
											OFFSET 0.59975 -0.00000 0.00000
										}
									}
								}
								JOINT LThumb
								{
									OFFSET 0 0 0
									CHANNELS 3 Zrotation Yrotation Xrotation
									End Site
									{
										OFFSET 0.60891 -0.00000 0.60891
									}
								}
							}
						}
					}
				}
				JOINT RightShoulder
				{
					OFFSET 0 0 0
					CHANNELS 3 Zrotation Yrotation Xrotation
					JOINT RightArm
					{
						OFFSET -2.93906 0.88031 0.02490
						CHANNELS 3 Zrotation Yrotation Xrotation
						JOINT RightForeArm
						{
							OFFSET -4.77254 -0.00000 -0.00000
							CHANNELS 3 Zrotation Yrotation Xrotation
							JOINT RightHand
							{
								OFFSET -2.75995 -0.00000 -0.00000
								CHANNELS 3 Zrotation Yrotation Xrotation
								JOINT RightFingerBase
								{
									OFFSET 0 0 0
									CHANNELS 3 Zrotation Yrotation Xrotation
									JOINT RightHandIndex1
									{
										OFFSET -0.70162 -0.00000 0.00000
										CHANNELS 3 Zrotation Yrotation Xrotation
										End Site
										{
											OFFSET -0.56566 -0.00000 0.00000
										}
									}
								}
								JOINT RThumb
								{
									OFFSET 0 0 0
									CHANNELS 3 Zrotation Yrotation Xrotation
									End Site
									{
										OFFSET -0.57430 -0.00000 0.57430
									}
								}
							}
						}
					}
				}
			}
		}
	}
}
MOTION
Frames: 7
Frame Time: .0083333
0.0778 16.0709 -0.401 0 0 0 0 0 0 -21 0 0 0 0 0 0 0 0 0 0 0 0 0 0 21 0 0 0 0 0 0 0 0 0 0 0 0 0 0 0 0 0 0 0 0 0 0 -16 0 0 21 0 0 11 0 0 0 -8 0 0 0 0 0 0 0 0 0 0 0 0 0 0 0 0 0 0 0 0 8 0 0 0 0 0 0 0 0 0 0 0 0 0 0 0 0 0
0.0778 16.0709 -0.4010 -1.6848 1.0964 -3.8049 0.0000 0.0000 0.0000 -16.7885 -9.6377 7.6795 0.3882 4.0011 11.0799 0.0698 7.8589 -12.5588 0.3934 -4.0275 -11.1539 0.0000 0.0000 0.0000 21.0967 10.3683 6.5974 -0.6932 -5.3223 14.8301 0.0828 -11.5639 -15.2366 -0.3749 3.9325 -10.8868 -1.4327 0.2363 10.1176 -0.7085 0.1089 0.2963 0.0516 0.0811 -5.3709 -16.1369 -11.7462 -6.5435 2.6407 -14.6583 25.8297 1.7342 -8.0363 10.8766 -0.0000 0.0000 0.0000 -90.1470 -4.5108 21.6395 13.7614 -22.3926 -2.7366 -0.0000 0.0000 -11.2517 12.1297 8.9740 1.9201 -7.1250 0.0000 -0.0000 -12.7585 38.8505 1.9706 -0.0000 0.0000 0.0000 92.4733 2.5842 28.8132 -14.7851 23.8459 -3.1386 0.0000 0.0000 10.3561 -7.6124 10.3152 -1.3709 7.1250 -0.0000 -0.0000 13.7158 -19.7153 8.5304
0.0771 16.0724 -0.3998 -1.6825 1.1022 -3.7903 0.0000 0.0000 0.0000 -16.7832 -9.6223 7.7032 0.3828 3.9732 11.0013 0.0647 7.8801 -12.4935 0.3971 -4.0461 -11.2063 0.0000 0.0000 0.0000 21.0927 10.4014 6.5431 -0.6994 -5.3458 14.8977 0.0793 -11.5612 -15.2865 -0.3596 3.8524 -10.6617 -1.4582 0.2231 10.1326 -0.6960 0.0884 0.2700 0.0819 0.0721 -5.4068 -16.1736 -11.7347 -6.5394 2.6518 -14.6406 25.8487 1.7456 -8.0310 10.8856 -0.0000 0.0000 0.0000 -90.1847 -4.4657 21.5491 13.7563 -22.3853 -2.7346 -0.0000 0.0000 -11.1636 12.0343 8.9208 1.8934 -7.1250 0.0000 -0.0000 -12.8280 38.7905 2.0011 -0.0000 0.0000 0.0000 92.4464 2.5426 28.7446 -14.7617 23.8131 -3.1291 0.0000 0.0000 10.4312 -7.5950 10.4883 -1.3904 7.1250 -0.0000 -0.0000 13.7161 -19.5465 8.5841
0.0789 16.0733 -0.3988 -1.7114 1.0643 -3.7835 0.0000 0.0000 0.0000 -16.7624 -9.6257 7.6387 0.3913 4.0168 11.1238 0.0681 7.8553 -12.5237 0.3868 -3.9937 -11.0588 0.0000 0.0000 0.0000 21.0879 10.3544 6.5183 -0.6939 -5.3251 14.8382 0.0731 -11.4679 -15.2405 -0.3398 3.7462 -10.3636 -1.4055 0.2175 10.1402 -0.6966 0.0868 0.2675 0.0517 0.0700 -5.4135 -16.1722 -11.7374 -6.5929 2.6432 -14.6348 25.8883 1.7390 -8.0287 10.9094 0.0000 -0.0000 0.0000 -90.1748 -4.4324 21.5119 13.7841 -22.4252 -2.7452 -0.0000 0.0000 -11.1432 11.9927 9.0609 1.9160 -7.1250 0.0000 -0.0000 -12.8928 38.9267 1.9676 0.0000 -0.0000 0.0000 92.4365 2.5373 28.7206 -14.7296 23.7681 -3.1162 0.0000 0.0000 10.5281 -7.7357 10.7204 -1.4475 7.1250 -0.0000 -0.0000 13.6028 -19.3139 8.5819
0.0798 16.0715 -0.3970 -1.7796 1.0356 -3.7702 0.0000 0.0000 0.0000 -16.6758 -9.5737 7.5784 0.3953 4.0370 11.1807 0.0717 7.8021 -12.5213 0.3792 -3.9547 -10.9492 0.0000 0.0000 0.0000 21.1424 10.2848 6.5011 -0.6907 -5.3131 14.8039 0.0704 -11.4180 -15.2065 -0.3666 3.8892 -10.7652 -1.3172 0.2148 10.1359 -0.6842 0.0944 0.2709 0.0139 0.0716 -5.4075 -16.1819 -11.7625 -6.6298 2.6476 -14.6637 25.8862 1.7348 -8.0414 10.9200 0.0000 0.0000 0.0000 -90.1708 -4.4734 21.4931 13.7342 -22.3535 -2.7262 -0.0000 0.0000 -11.1338 12.1004 9.1836 1.9597 -7.1250 0.0000 -0.0000 -12.8279 39.0568 1.9154 0.0000 0.0000 0.0000 92.4431 2.5065 28.6899 -14.6783 23.6961 -3.0955 0.0000 0.0000 10.5406 -7.9952 10.6749 -1.4903 7.1250 -0.0000 -0.0000 13.4254 -19.3486 8.4527
0.0784 16.0706 -0.3942 -1.7804 1.0573 -3.7373 0.0000 0.0000 0.0000 -16.6436 -9.5132 7.4899 0.3992 4.0564 11.2354 0.0803 7.7330 -12.5890 0.3858 -3.9890 -11.0456 0.0000 0.0000 0.0000 21.1552 10.2634 6.5136 -0.6878 -5.3022 14.7726 0.0816 -11.5012 -15.1594 -0.4031 4.0761 -11.2908 -1.3415 0.2012 10.0938 -0.6661 0.0753 0.2697 0.0493 0.0629 -5.3850 -16.2234 -11.7646 -6.6395 2.6682 -14.6620 25.8465 1.7482 -8.0411 10.9124 0.0000 0.0000 0.0000 -90.1992 -4.5227 21.3641 13.6442 -22.2237 -2.6921 -0.0000 0.0000 -11.0015 12.0986 9.2752 1.9787 -7.1250 0.0000 -0.0000 -12.8489 39.1478 1.8893 0.0000 0.0000 0.0000 92.4163 2.4872 28.5688 -14.5877 23.5686 -3.0592 0.0000 0.0000 10.6437 -8.1947 10.7388 -1.5371 7.1250 -0.0000 -0.0000 13.2825 -19.2781 8.3792
0.0776 16.0699 -0.3917 -1.7782 1.0611 -3.7512 0.0000 0.0000 0.0000 -16.6397 -9.4868 7.4430 0.4077 4.0989 11.3552 0.0876 7.6810 -12.6548 0.3990 -4.0555 -11.2329 0.0000 0.0000 0.0000 21.1592 10.2448 6.5800 -0.6816 -5.2787 14.7052 0.0835 -11.5145 -15.1501 -0.3913 4.0168 -11.1240 -1.3758 0.1911 10.1147 -0.6412 0.0588 0.2685 0.0970 0.0561 -5.3978 -16.2450 -11.7639 -6.6897 2.6391 -14.6410 25.8563 1.7407 -8.0355 10.9234 0.0000 -0.0000 0.0000 -90.2517 -4.5294 21.1676 13.5595 -22.1015 -2.6601 -0.0000 0.0000 -10.7843 12.0866 9.3780 1.9984 -7.1250 0.0000 -0.0000 -12.8813 39.2490 1.8615 0.0000 -0.0000 0.0000 92.3667 2.4288 28.4516 -14.5319 23.4899 -3.0369 0.0000 0.0000 10.8011 -8.2291 10.8680 -1.5619 7.1250 -0.0000 -0.0000 13.2507 -19.1498 8.3970
